<?xml version="1.0" encoding="UTF-8" standalone="no"?>
<svg
   xmlns:dc="http://purl.org/dc/elements/1.1/"
   xmlns:cc="http://creativecommons.org/ns#"
   xmlns:rdf="http://www.w3.org/1999/02/22-rdf-syntax-ns#"
   xmlns:svg="http://www.w3.org/2000/svg"
   xmlns="http://www.w3.org/2000/svg"
   xmlns:sodipodi="http://sodipodi.sourceforge.net/DTD/sodipodi-0.dtd"
   xmlns:inkscape="http://www.inkscape.org/namespaces/inkscape"
   version="1.1"
   id="svg2"
   xml:space="preserve"
   width="240.03999"
   height="44.240002"
   viewBox="0 0 240.03999 44.240002"
   sodipodi:docname="logo_100_s_linkou.eps"><metadata
     id="metadata8"><rdf:RDF><cc:Work
         rdf:about=""><dc:format>image/svg+xml</dc:format><dc:type
           rdf:resource="http://purl.org/dc/dcmitype/StillImage" /></cc:Work></rdf:RDF></metadata><defs
     id="defs6" /><sodipodi:namedview
     pagecolor="#ffffff"
     bordercolor="#666666"
     borderopacity="1"
     objecttolerance="10"
     gridtolerance="10"
     guidetolerance="10"
     inkscape:pageopacity="0"
     inkscape:pageshadow="2"
     inkscape:window-width="640"
     inkscape:window-height="480"
     id="namedview4" /><g
     id="g10"
     inkscape:groupmode="layer"
     inkscape:label="ink_ext_XXXXXX"
     transform="matrix(1.3333333,0,0,-1.3333333,0,44.24)"><g
       id="g12"
       transform="scale(0.1)"><path
         d="M 1800.26,331.809 H 0 L 0.171875,0 H 1696.52 c 0,0 -101.74,101.742 -114.03,114.027 13.2,13.196 217.77,217.782 217.77,217.782"
         style="fill:#ffffff;fill-opacity:1;fill-rule:nonzero;stroke:none"
         id="path14" /><path
         d="m 1568.35,114.027 207.77,207.782 H 10.0039 V 114.027 H 1568.35"
         style="fill:#e41d25;fill-opacity:1;fill-rule:nonzero;stroke:none"
         id="path16" /><path
         d="M 1672.26,10.1367 1568.35,114.027 H 10.0039 V 10.1367 H 1672.26"
         style="fill:#223988;fill-opacity:1;fill-rule:nonzero;stroke:none"
         id="path18" /><path
         d="m 258.871,149.742 c -13.519,0 -27.246,3.594 -38.879,10.61 l 7.512,15.089 c 10.617,-6.179 20.047,-9.773 32.019,-9.773 14.602,0 23.348,7.043 23.348,18.848 0,8.765 -5.5,14.25 -17.66,17.672 l -12.672,3.589 c -10.793,3.086 -18.508,7.551 -22.973,14.243 -3.257,4.785 -4.964,10.441 -4.964,17.296 0,20.922 16.433,35.164 40.281,35.164 13.523,0 27.07,-3.953 37.5,-11.324 l -8.895,-13.894 c -10.957,6.531 -18.476,9.09 -27.906,9.09 -11.664,0 -19.394,-6.336 -19.394,-16.11 0,-7.359 4.093,-11.137 15.761,-14.578 l 14.067,-4.109 c 17.148,-4.985 29.125,-15.934 29.125,-33.782 0,-19.714 -15.93,-38.031 -46.27,-38.031"
         style="fill:#ffffff;fill-opacity:1;fill-rule:nonzero;stroke:none"
         id="path20" /><path
         d="m 354.668,238.691 h 20.707 l -4.953,-13.027 h -15.953 v -48.676 c 0,-10.793 2.398,-13.883 10.621,-13.883 2.582,0 4.789,0.512 8.078,1.715 l 2.383,-11.312 c -5.672,-2.574 -11.141,-3.766 -16.953,-3.766 -16.809,0 -22.625,9.946 -22.625,22.27 v 53.652 h -9.614 v 13.027 h 9.614 c 0,7.375 0,14.926 0.859,21.438 l 19.344,4.629 c -0.84,-7.024 -1.508,-17.496 -1.508,-26.067"
         style="fill:#ffffff;fill-opacity:1;fill-rule:nonzero;stroke:none"
         id="path22" /><path
         d="m 434.605,261.316 -15.39,-12.324 -16.504,12.508 -11.309,8.574 6.161,9.235 21.417,-12.489 20.622,12.489 5.609,-9.235 z m 3.602,-39.082 c -1.867,0.7 -3.266,1.2 -5.316,1.2 -7.899,0 -14.575,-5.813 -16.246,-12.848 v -58.621 h -18.887 v 61.176 c 0,10.996 -1.18,18.019 -3.078,23.343 l 17.324,4.438 c 2.031,-3.926 3.223,-8.899 3.223,-13.692 6.843,9.411 13.73,13.883 22.128,13.883 2.747,0 4.473,-0.351 6.68,-1.383 l -5.828,-17.496"
         style="fill:#ffffff;fill-opacity:1;fill-rule:nonzero;stroke:none"
         id="path24" /><path
         d="m 513.539,231.848 c 7.535,-6.868 11.316,-17.489 11.316,-37.711 v -3.946 h -51.781 v -1.382 c 0,-11.985 4.477,-24.672 21.434,-24.672 8.027,0 15.082,2.914 21.566,8.574 l 7.403,-11.488 c -9.075,-7.715 -19.52,-11.481 -31.188,-11.481 -24.523,0 -39.941,17.653 -39.941,45.418 0,15.262 3.226,25.367 10.781,33.945 7.027,8.059 15.613,11.657 26.578,11.657 8.57,0 16.469,-2.242 23.832,-8.914 z m -23.832,-5.309 c -10.594,0 -16.469,-8.394 -16.469,-22.476 h 32.075 c 0,14.082 -6.196,22.476 -15.606,22.476"
         style="fill:#ffffff;fill-opacity:1;fill-rule:nonzero;stroke:none"
         id="path26" /><path
         d="m 605.535,151.965 c -0.887,1.867 -1.023,3.078 -1.551,6.672 -5.82,-5.801 -12.679,-8.547 -21.242,-8.547 -22.121,0 -35.5,17.305 -35.5,44.383 0,27.25 15.106,45.769 36,45.769 7.344,0 13.363,-2.394 18.692,-7.883 0,0 -0.508,6.68 -0.508,14.235 v 31.711 l 18.652,-2.93 v -93.25 c 0,-17.141 1.067,-25.879 2.746,-30.16 z m -4.109,66.18 c -4.293,4.621 -9.442,7.007 -15.774,7.007 -12.004,0 -17.523,-9.601 -17.523,-30.511 0,-19.2 3.805,-28.801 18.023,-28.801 7.024,0 12.711,3.949 15.274,8.23 v 44.075"
         style="fill:#ffffff;fill-opacity:1;fill-rule:nonzero;stroke:none"
         id="path28" /><path
         d="m 684.57,240.762 c 24.688,0 38.735,-18.352 38.735,-45.778 0,-27.933 -14.93,-45.242 -38.41,-45.242 -23.489,0 -38.231,17.653 -38.231,45.418 0,27.774 14.93,45.602 37.906,45.602 z m -16.996,-44.403 c 0,-25.203 6.379,-32.582 17.668,-32.582 11.145,0 17.289,9.098 17.289,30.864 0,24.519 -6.828,31.898 -17.808,31.898 -11.977,0 -17.149,-9.094 -17.149,-30.18"
         style="fill:#ffffff;fill-opacity:1;fill-rule:nonzero;stroke:none"
         id="path30" /><path
         d="m 780.738,149.742 c -23.672,0 -36.871,16.625 -36.871,44.535 0,31.547 18.852,46.645 38.235,46.645 9.406,0 16.277,-2.231 23.996,-9.43 l -9.434,-12.508 c -5.156,4.637 -9.582,6.68 -14.562,6.68 -6.004,0 -10.989,-3.098 -13.723,-8.738 -2.582,-5.305 -3.563,-13.371 -3.563,-24.168 0,-11.828 1.836,-19.363 5.805,-23.641 2.738,-3.101 6.844,-4.98 11.481,-4.98 6.003,0 11.839,2.914 17.488,8.574 l 8.926,-11.488 c -7.93,-7.887 -16.141,-11.481 -27.778,-11.481 z m 15.758,111.574 -15.414,-12.324 -16.48,12.508 -11.313,8.574 6.18,9.235 21.41,-12.489 20.578,12.489 5.668,-9.235 -10.629,-8.758"
         style="fill:#ffffff;fill-opacity:1;fill-rule:nonzero;stroke:none"
         id="path32" /><path
         d="m 880.141,231.848 c 7.55,-6.868 11.312,-17.489 11.312,-37.711 v -3.946 h -51.742 v -1.382 c 0,-11.985 4.43,-24.672 21.394,-24.672 8.067,0 15.11,2.914 21.622,8.574 l 7.382,-11.488 c -9.093,-7.715 -19.574,-11.481 -31.238,-11.481 -24.519,0 -39.93,17.653 -39.93,45.418 0,15.262 3.289,25.367 10.809,33.945 7.012,8.059 15.617,11.657 26.582,11.657 8.563,0 16.422,-2.242 23.809,-8.914 z m -23.809,-5.309 c -10.617,0 -16.453,-8.394 -16.453,-22.476 h 32.031 c 0,14.082 -6.144,22.476 -15.578,22.476"
         style="fill:#ffffff;fill-opacity:1;fill-rule:nonzero;stroke:none"
         id="path34" /><path
         d="m 941.77,149.551 c -10.625,0 -22.106,3.433 -33.25,9.601 l 6.668,13.559 c 7.707,-4.469 18.363,-9.094 28.128,-9.094 8.2,0 14.024,4.973 14.024,12.176 0,6.691 -4.25,10.102 -14.024,12.176 l -10.48,2.222 c -13,2.743 -20.75,11.661 -20.75,23.832 0,16.27 13.066,27.586 32.234,27.586 11.832,0 21.317,-3.601 28.645,-7.539 l -6.168,-13.035 c -8.055,4.309 -14.41,6.36 -21.27,6.36 -8.062,0 -13.195,-4.461 -13.195,-11.149 0,-5.312 2.938,-8.039 11.652,-10.277 l 10.836,-2.766 c 17.469,-4.437 22.086,-14.043 22.086,-24.14 0,-17.508 -14.23,-29.512 -35.136,-29.512"
         style="fill:#ffffff;fill-opacity:1;fill-rule:nonzero;stroke:none"
         id="path36" /><path
         d="M 999.578,151.965 V 252.93 c 0,8.386 -0.519,14.218 -1.89,20.922 l 18.852,4.617 c 1.01,-5.504 1.7,-13.879 1.7,-22.981 V 151.965 Z m 52.792,0 -32.74,49.015 25.69,37.711 h 22.81 l -29.65,-36.668 36.7,-50.058 h -22.81"
         style="fill:#ffffff;fill-opacity:1;fill-rule:nonzero;stroke:none"
         id="path38" /><path
         d="m 1123.27,150.09 c -7.22,-20.91 -13.36,-31.379 -33.75,-35.145 l -6.19,12.157 c 11.84,3.257 18.5,8.242 23.5,24.863 h -6 c -2.42,9.769 -5.66,19.191 -8.25,26.918 l -19.69,58.433 19.19,3.27 15.96,-52.813 c 1.51,-5.289 4.78,-19.531 4.78,-19.531 0,0 0,0 0,0.172 0.32,1.375 3.41,13.359 6.5,23.324 l 14.37,46.953 h 20.28 z m 16.62,115.344 -37.72,-17.473 -5.83,10.789 34.97,22.633 8.58,-15.949"
         style="fill:#ffffff;fill-opacity:1;fill-rule:nonzero;stroke:none"
         id="path40" /><path
         d="M 1206.84,151.965 V 252.93 c 0,8.386 -0.51,14.218 -1.89,20.922 l 18.84,4.617 c 1.09,-5.504 1.71,-13.879 1.71,-22.981 V 151.965 Z m 52.78,0 -32.71,49.015 25.69,37.711 h 22.81 l -29.66,-36.668 36.69,-50.058 h -22.82"
         style="fill:#ffffff;fill-opacity:1;fill-rule:nonzero;stroke:none"
         id="path42" /><path
         d="m 1335.75,222.234 c -1.88,0.7 -3.29,1.2 -5.32,1.2 -7.85,0 -14.53,-5.813 -16.26,-12.848 v -58.621 h -18.89 v 61.176 c 0,10.996 -1.16,18.019 -3.05,23.343 l 17.3,4.438 c 2.08,-3.926 3.26,-8.899 3.26,-13.692 6.86,9.411 13.69,13.883 22.1,13.883 2.72,0 4.46,-0.351 6.68,-1.383 l -5.82,-17.496"
         style="fill:#ffffff;fill-opacity:1;fill-rule:nonzero;stroke:none"
         id="path44" /><path
         d="m 1409.16,148.355 c -5.29,2.086 -9.73,6.188 -11.82,11.672 -7,-7.898 -14.55,-10.652 -23.8,-10.652 -19.89,0 -28.83,10.977 -28.83,26.066 0,20.063 15.11,30.18 42.9,30.18 h 5.81 v 4.629 c 0,9.941 -1.73,15.246 -12,15.246 -12.5,0 -25.87,-9.945 -25.87,-9.945 l -8.44,13.554 c 13.04,8.211 23.86,11.817 36.87,11.817 13.51,0 22.64,-4.977 26.42,-14.383 1.53,-3.773 1.53,-8.394 1.35,-21.269 l -0.36,-24.86 c 0,-4.281 0,-7.535 0.54,-10.113 0.85,-4.457 2.92,-7.024 7.03,-9.945 z m -19.51,44.579 c -18.84,0 -24.52,-5.496 -24.52,-16.454 0,-8.238 4.46,-13.375 12,-13.375 5.96,0 11.8,3.61 15.62,9.09 l 0.34,20.563 c 0,0 -2.07,0.176 -3.44,0.176"
         style="fill:#ffffff;fill-opacity:1;fill-rule:nonzero;stroke:none"
         id="path46" /><path
         d="m 1455.23,127.949 c -3.95,-4.957 -9.24,-9.238 -16.28,-12.328 l -8.07,10.965 c 9.13,6.336 11.64,13.191 11.64,27.246 v 83.484 l 19.05,3.446 v -86.746 c 0,-15.262 -3.24,-22.106 -6.34,-26.067 z m -14.73,140.93 c 1.37,3.422 4.28,6.164 7.69,7.18 1.22,0.535 2.41,0.703 3.81,0.703 6.83,0 12.47,-5.684 12.47,-12.344 0,-4.445 -2.03,-8.23 -5.31,-10.473 -2.03,-1.535 -4.58,-2.402 -7.32,-2.402 -6.91,0 -12.39,5.492 -12.39,12.527 0,1.715 0.33,3.254 1.05,4.809"
         style="fill:#ffffff;fill-opacity:1;fill-rule:nonzero;stroke:none"
         id="path48" /></g></g></svg>
